<svg xmlns="http://www.w3.org/2000/svg" version="1.1" xmlns:xlink="http://www.w3.org/1999/xlink" xmlns:svgjs="http://svgjs.dev/svgjs" width="2000" height="1250" viewBox="0 0 2000 1250"><g transform="matrix(1,0,0,1,0,0)"><svg viewBox="0 0 512 320" data-background-color="#f9e17e" preserveAspectRatio="xMidYMid meet" height="1250" width="2000" xmlns="http://www.w3.org/2000/svg" xmlns:xlink="http://www.w3.org/1999/xlink"><g id="tight-bounds" transform="matrix(1,0,0,1,0,0)"><svg viewBox="0 0 512 320" height="320" width="512"><g><svg></svg></g><g><svg viewBox="0 0 512 320" height="320" width="512"><g><path xmlns="http://www.w3.org/2000/svg" d="M96 160c0-88.366 71.634-160 160-160 88.366 0 160 71.634 160 160 0 88.366-71.634 160-160 160-88.366 0-160-71.634-160-160z" fill="#000000" fill-rule="nonzero" stroke="none" stroke-width="1" stroke-linecap="butt" stroke-linejoin="miter" stroke-miterlimit="10" stroke-dasharray="" stroke-dashoffset="0" font-family="none" font-weight="none" font-size="none" text-anchor="none" style="mix-blend-mode: normal" data-fill-palette-color="tertiary"></path></g><g transform="matrix(1,0,0,1,173.39157752704307,80)"><svg viewBox="0 0 165.21684494591386 160" height="160" width="165.21684494591386"><g><svg viewBox="0 0 204.8 198.33328744854728" height="160" width="165.21684494591386"><g transform="matrix(1,0,0,1,0,101.46579352839058)"><svg viewBox="0 0 204.8 96.8674939201567" height="96.8674939201567" width="204.8"><g id="textblocktransform"><svg viewBox="0 0 204.8 96.8674939201567" height="96.8674939201567" width="204.8" id="textblock"><g><svg viewBox="0 0 204.8 69.91813349926049" height="69.91813349926049" width="204.8"><g transform="matrix(1,0,0,1,0,0)"><svg width="204.8" viewBox="-3.19382381439209 -9.179140090942383 145.19451904296875 49.56898498535156" height="69.91813349926049" data-palette-color="#f9e17e"><path d="M42.939 4.478v0c-1.42 0.099-2.577 0.003-3.471-0.287-0.9-0.293-1.29-0.626-1.168-1v0c0.076-0.235 0.621-0.208 1.636 0.079 1.006 0.292 1.763 0.409 2.273 0.35v0c1.501-0.262 2.466-1.052 2.895-2.371v0c0.221-0.678 0.268-1.448 0.141-2.31v0c-0.458-2.28-2.769-4.097-6.935-5.451v0c-2.403-0.781-4.92-1.2-7.551-1.256-2.64-0.052-5.02 0.412-7.14 1.391-2.112 0.975-3.377 2.106-3.795 3.393v0c-0.639 1.965 0.84 4.037 4.435 6.216v0l5.63 3.06c2.259 1.225 3.855 2.417 4.789 3.576v0c1.244 1.456 1.581 3.062 1.01 4.818v0c-0.231 0.71-0.595 1.433-1.094 2.168v0c-2.273 3.306-5.974 5.191-11.102 5.655v0c-4.293 0.441-8.995-0.169-14.105-1.831v0c-1.458-0.474-2.707-0.957-3.746-1.449v0c0.886 0.961 2.139 1.95 3.757 2.967v0c0.123 0.075 0.168 0.163 0.135 0.265v0c-0.099 0.304-0.503 0.341-1.214 0.11v0c-1.388-0.451-2.844-1.839-4.366-4.164v0c-2.664-1.357-4.509-2.819-5.535-4.386v0c-0.65-0.997-1.121-2.31-1.412-3.939-0.297-1.632-0.264-3.005 0.099-4.122 0.363-1.116 0.887-1.973 1.572-2.57v0c1.598-1.464 3.173-1.944 4.727-1.439v0c1.186 0.385 1.555 1.61 1.108 3.673v0c-0.778 4.009-1.172 6.31-1.182 6.902v0c-0.026 1.828 0.382 3.514 1.227 5.057v0c1.321 0.766 2.809 1.418 4.464 1.956v0c3.658 1.189 7.483 1.63 11.473 1.322 3.993-0.314 7.2-1.554 9.621-3.717v0c0.989-0.842 1.615-1.669 1.879-2.481v0c0.517-1.591-0.486-3.281-3.01-5.069v0l-8.278-4.941c-1.684-1.031-2.909-2.232-3.676-3.603-0.773-1.373-0.945-2.722-0.514-4.048v0c0.66-2.029 2.59-3.644 5.792-4.846v0c2.432-0.927 5.185-1.371 8.257-1.333 3.07 0.045 5.952 0.505 8.646 1.381 2.688 0.874 4.787 1.987 6.296 3.34v0c1.921 1.788 2.555 3.687 1.902 5.697-0.655 2.016-2.145 3.095-4.47 3.237zM2.895 16.486v0c-1.261-2.807-1.55-6.175-0.869-10.104v0c0.388-2.229 0.446-3.388 0.173-3.477-0.273-0.089-0.551-0.095-0.835-0.019-0.29 0.074-0.635 0.326-1.034 0.758-0.399 0.431-0.731 1.052-0.995 1.863v0c-0.847 2.606-0.661 5.137 0.559 7.595v0c0.606 1.241 1.606 2.369 3.001 3.384zM48.493 28.152v0c-2.084-0.255-2.977-1.603-2.678-4.045v0c0.168-1.376 0.841-2.842 2.018-4.398 1.178-1.562 2.61-3.385 4.296-5.468v0c-4.796 1.704-9.3 4.538-13.512 8.502v0c-2.428 2.826-3.817 4.218-4.168 4.175v0c-1.026-0.125-1.502-0.489-1.428-1.092v0c0.039-0.318 0.32-0.858 0.843-1.619v0c4.175-5.689 7.319-9.838 9.431-12.447v0c5.028-6.236 8.439-9.529 10.235-9.881v0c0.077-0.024 0.152-0.032 0.225-0.023v0c0.457 0.056 0.729 0.465 0.817 1.229v0c-0.197 0.728-2.361 3.187-6.494 7.376v0c-4.287 4.244-6.764 7.061-7.431 8.45v0c1.42-0.793 3.893-2.123 7.419-3.989v0c3.792-2.008 6.254-2.942 7.386-2.804 1.132 0.138 1.644 0.648 1.535 1.528v0c-0.018 0.146-0.04 0.244-0.066 0.294-0.02 0.051-1.451 1.569-4.294 4.552-2.837 2.984-4.35 5.254-4.541 6.81v0c-0.1 0.814 0.152 1.258 0.754 1.331v0c1.915 0.16 5.058-1.786 9.429-5.839v0c0.356-0.279 0.614-0.408 0.773-0.389 0.159 0.019 0.225 0.135 0.199 0.347v0c-0.087 0.708-2.07 2.4-5.95 5.075v0c-2.424 1.644-4.024 2.419-4.798 2.325zM71.346 18.576v0c-0.016 1.24-1.236 3.305-3.66 6.194v0c-2.85 3.417-5.272 5.113-7.265 5.088v0l-0.86-0.011c-0.92-0.012-1.64-0.501-2.161-1.468v0c-0.418-0.685-0.622-1.438-0.612-2.258v0c0.027-2.133 1.622-5.11 4.785-8.929 3.162-3.82 5.703-5.718 7.623-5.694v0c1.813 0.023 2.708 0.995 2.683 2.915v0c-0.006 0.5-0.105 1.139-0.295 1.916v0c0.039 0.107 0.378 0.165 1.018 0.173 0.64 0.008 1.621-0.316 2.943-0.972v0c-0.041 0.606-1.455 1.458-4.243 2.556v0c0.031 0.147 0.046 0.311 0.044 0.49zM67.911 15.752v0c-1.207-0.015-2.941 1.386-5.204 4.204-2.263 2.818-3.403 4.904-3.42 6.257-0.017 1.353 0.404 2.035 1.264 2.047v0c1.527 0.019 3.481-1.346 5.863-4.096 2.389-2.743 3.59-4.718 3.606-5.925v0c-0.569-0.334-1.272-1.163-2.109-2.487zM92.629 15.846v0c0.309 2.863-1.035 5.754-4.032 8.674-2.991 2.918-5.689 4.507-8.095 4.767v0c-1.591 0.172-2.762 0.191-3.514 0.057-0.745-0.134-1.619-0.683-2.622-1.648v0c-0.543 0.562-1.218 1.912-2.027 4.051-0.808 2.146-1.133 3.944-0.976 5.397v0c0.073 0.676 0.507 1.524 1.301 2.545v0c0.086 0.172 0.045 0.327-0.121 0.465-0.159 0.145-0.284 0.222-0.377 0.232-0.086 0.009-0.167 0.001-0.244-0.024v0c-1.573-0.655-2.486-2.159-2.741-4.512-0.254-2.353 1.262-6.631 4.548-12.832 3.286-6.209 5.644-9.642 7.075-10.3v0c0.343-0.111 0.568-0.172 0.674-0.183v0c0.603-0.065 0.976 0.558 1.118 1.871v0c0.313-0.389 1.003-0.802 2.069-1.24v0c1.307-0.503 2.242-0.785 2.805-0.846v0c1.273-0.137 2.419 0.107 3.439 0.735 1.013 0.622 1.586 1.552 1.72 2.791zM89.866 15.602v0c-0.145-1.339-1.012-1.922-2.603-1.751-1.591 0.172-3.006 0.663-4.246 1.475v0c-0.572 0.35-2.068 2.087-4.486 5.212-2.418 3.124-3.584 5.091-3.497 5.899v0c0.069 0.636 0.608 1.064 1.618 1.284 1.009 0.213 2.007 0.266 2.994 0.159v0c1.949-0.211 4.219-1.576 6.81-4.095 2.591-2.52 3.728-5.247 3.41-8.183zM120.627 20.027v0c-2.325 0.672-3.798-0.068-4.42-2.22v0c-0.355-1.23-0.294-3.072 0.183-5.528 0.477-2.456 1.103-4.59 1.876-6.403v0c-1.824 1.637-3.735 4.198-5.732 7.684-1.991 3.483-3.11 6.853-3.356 10.109v0c-0.087 0.324-0.335 0.544-0.745 0.663v0c-0.826 0.239-1.373-0.103-1.639-1.026v0c-0.198-1.983-0.049-4.361 0.447-7.134v0c0.144-0.895 0.593-3.506 1.349-7.832v0c-2.167 2.514-3.894 5.039-5.181 7.575-1.278 2.541-2.424 5.048-3.437 7.52-1.005 2.476-1.611 3.744-1.816 3.804v0c-0.442 0.128-0.885 0.034-1.33-0.282-0.445-0.316-0.727-0.678-0.846-1.088v0c-0.178-0.615 0.061-3.127 0.717-7.535v0l-2.142 4.116c-0.539 0.968-0.902 1.478-1.087 1.532-0.186 0.054-0.31-0.028-0.373-0.246-0.065-0.224-0.002-0.513 0.187-0.866v0c0.904-1.628 1.665-3.219 2.285-4.772 0.628-1.549 1.619-4.278 2.974-8.187v0c0.23-0.622 0.684-1.03 1.363-1.227 0.685-0.198 1.121 0.026 1.308 0.674v0c0.07 0.243-0.354 2.174-1.272 5.79-0.919 3.617-1.367 5.846-1.347 6.687v0c0.958-1.942 2.466-4.616 4.521-8.02v0c3.074-5.114 5.278-7.864 6.61-8.249v0c0.41-0.118 0.822-0.109 1.236 0.027 0.41 0.145 0.656 0.362 0.74 0.651 0.085 0.295-0.208 1.778-0.879 4.449v0c-0.619 2.733-0.931 4.343-0.936 4.829v0c2.872-4.279 4.303-6.434 4.293-6.466v0c2.493-3.427 4.441-5.343 5.844-5.748v0c0.41-0.118 0.832-0.098 1.267 0.061 0.433 0.153 0.698 0.399 0.796 0.738v0c0.02 0.07-0.674 1.836-2.082 5.296-1.408 3.46-1.988 6.136-1.739 8.028v0c0.114 0.633 0.369 1.059 0.765 1.278 0.396 0.219 0.995 0.212 1.795-0.019 0.807-0.233 1.825-1.128 3.055-2.684 1.234-1.564 2.384-3.517 3.449-5.857v0c0.417-0.863 0.737-1.327 0.962-1.392 0.224-0.065 0.361-0.011 0.411 0.162v0c0.068 0.237-0.007 0.554-0.225 0.95v0c-1.095 2.502-2.405 4.741-3.93 6.715-1.517 1.979-2.823 3.127-3.919 3.443zM133.499 17.599v0c-0.356 0.167-0.702 0.269-1.037 0.308v0c-2.33 0.383-3.902-0.294-4.716-2.033v0c-1.054-2.252-0.856-5.528 0.593-9.827 1.445-4.29 3.297-6.963 5.555-8.019v0c0.743-0.347 1.441-0.428 2.096-0.24 0.654 0.187 1.117 0.571 1.388 1.15v0c0.845 1.806 0.289 4.167-1.666 7.083-1.955 2.916-3.787 4.774-5.496 5.573v0c-0.254 0.119-0.491 0.193-0.713 0.223v0c-0.076 1.096 0.111 2.126 0.564 3.093v0c0.782 1.673 1.971 2.136 3.565 1.391 1.594-0.746 3.161-2.792 4.701-6.141v0c1.223-2.5 2.114-4.96 2.676-7.378v0c0.109-0.522 0.269-0.833 0.48-0.932 0.205-0.096 0.353-0.047 0.444 0.146 0.09 0.193 0.091 0.524 0.001 0.993v0c-0.675 3.105-1.82 6.117-3.435 9.037-1.624 2.916-3.291 4.774-5 5.573zM136.127-0.598v0c-0.181-0.386-0.682-0.388-1.503-0.004-0.821 0.384-1.696 1.559-2.625 3.524v0c-1.244 2.628-2.001 5.124-2.271 7.488v0c0.224-0.024 0.448-0.088 0.671-0.193v0c1.226-0.573 2.557-1.991 3.995-4.253 1.437-2.262 2.049-4.289 1.836-6.081v0c-0.007-0.188-0.042-0.349-0.103-0.481z" opacity="1" transform="matrix(1,0,0,1,0,0)" fill="#ffffff" class="wordmark-text-0" data-fill-palette-color="quaternary" id="text-0"></path></svg></g></svg></g><g transform="matrix(1,0,0,1,61.26592,92.90963154042991)"><svg viewBox="0 0 82.26816000000001 3.957862379726787" height="3.957862379726787" width="82.26816000000001"><g transform="matrix(1,0,0,1,0,0)"><svg width="82.26816000000001" viewBox="1.0499999523162842 -38 1010.1000366210938 48.599998474121094" height="3.957862379726787" data-palette-color="#f9e17e"><path d="M9 0L9-2.7 13.4-2.7 13.4-14 3.65-32.2 1.05-32.2 1.05-34.9 14.2-34.9 14.2-32.2 10.15-32.2 17.7-17.7 17.95-17.7 25.5-32.2 21.45-32.2 21.45-34.9 31.7-34.9 31.7-32.2 29.1-32.2 19.35-14.6 19.35-2.7 23.75-2.7 23.75 0 9 0ZM43.15-2.35L43.15-2.35Q46.3-2.35 47.77-4.3 49.25-6.25 49.25-9.5L49.25-9.5 49.25-16.5Q49.25-19.75 47.77-21.7 46.3-23.65 43.15-23.65L43.15-23.65Q40-23.65 38.52-21.7 37.05-19.75 37.05-16.5L37.05-16.5 37.05-9.5Q37.05-6.25 38.52-4.3 40-2.35 43.15-2.35ZM43.15 0.6L43.15 0.6Q40.4 0.6 38.15-0.35 35.9-1.3 34.3-3.05 32.7-4.8 31.82-7.33 30.95-9.85 30.95-13L30.95-13Q30.95-16.15 31.82-18.68 32.7-21.2 34.3-22.95 35.9-24.7 38.15-25.65 40.4-26.6 43.15-26.6L43.15-26.6Q45.9-26.6 48.15-25.65 50.4-24.7 52-22.95 53.6-21.2 54.47-18.68 55.35-16.15 55.35-13L55.35-13Q55.35-9.85 54.47-7.33 53.6-4.8 52-3.05 50.4-1.3 48.15-0.35 45.9 0.6 43.15 0.6ZM70.95 0.6L70.95 0.6Q66.2 0.6 64.2-1.83 62.2-4.25 62.2-9.1L62.2-9.1 62.2-22 58.8-22.65 58.8-24.85 67.8-26.6 67.8-9.4Q67.8-6.15 69.05-4.65 70.3-3.15 73-3.15L73-3.15Q74-3.15 74.97-3.43 75.95-3.7 76.72-4.28 77.5-4.85 77.97-5.7 78.45-6.55 78.45-7.75L78.45-7.75 78.45-22 75.05-22.65 75.05-24.85 84.05-26.6 84.05-4 87.45-3.35 87.45-1.15 78.6 0.6 78.6-4.05 78.35-4.05Q78.05-3.2 77.42-2.35 76.8-1.5 75.87-0.85 74.95-0.2 73.72 0.2 72.5 0.6 70.95 0.6ZM91.19 0L91.19-2.7 94.59-2.7 94.59-22 91.19-22.65 91.19-24.85 100.04-26.6 100.04-21.95 100.29-21.95Q100.64-22.85 101.17-23.68 101.69-24.5 102.47-25.15 103.24-25.8 104.27-26.2 105.29-26.6 106.59-26.6L106.59-26.6Q108.89-26.6 110.27-25.45 111.64-24.3 111.64-22.15L111.64-22.15Q111.64-20.45 110.77-19.48 109.89-18.5 108.39-18.5L108.39-18.5Q106.84-18.5 105.97-19.33 105.09-20.15 105.09-21.4L105.09-21.4Q105.09-22.25 105.44-22.83 105.79-23.4 106.29-23.5L106.29-23.5 106.29-23.65Q106.14-23.7 105.94-23.73 105.74-23.75 105.34-23.75L105.34-23.75Q104.39-23.75 103.47-23.25 102.54-22.75 101.82-21.98 101.09-21.2 100.64-20.23 100.19-19.25 100.19-18.3L100.19-18.3 100.19-2.7 104.59-2.7 104.59 0 91.19 0ZM126.24 0L126.24-2.7 129.89-2.7 129.89-32.2 126.24-32.2 126.24-34.9 143.84-34.9Q148.89-34.9 151.51-32.5 154.14-30.1 154.14-25.45L154.14-25.45Q154.14-20.75 151.39-18.2 148.64-15.65 143.59-15.65L143.59-15.65 135.84-15.65 135.84-2.7 140.59-2.7 140.59 0 126.24 0ZM135.84-31.95L135.84-18.6 142.49-18.6Q145.14-18.6 146.56-20.1 147.99-21.6 147.99-24.1L147.99-24.1 147.99-26.45Q147.99-28.95 146.56-30.45 145.14-31.95 142.49-31.95L142.49-31.95 135.84-31.95ZM169.44 0.6L169.44 0.6Q166.54 0.6 164.29-0.38 162.04-1.35 160.49-3.15 158.94-4.95 158.11-7.45 157.29-9.95 157.29-13L157.29-13Q157.29-16.1 158.16-18.6 159.04-21.1 160.61-22.88 162.19-24.65 164.36-25.63 166.54-26.6 169.14-26.6L169.14-26.6Q171.79-26.6 173.89-25.73 175.99-24.85 177.46-23.25 178.94-21.65 179.74-19.4 180.54-17.15 180.54-14.4L180.54-14.4 180.54-13.05 163.34-13.05 163.34-11.45Q163.34-7.55 165.29-5.43 167.24-3.3 170.54-3.3L170.54-3.3Q173.44-3.3 175.21-4.58 176.99-5.85 177.84-7.75L177.84-7.75 179.99-6.45Q179.54-5.15 178.66-3.9 177.79-2.65 176.49-1.65 175.19-0.65 173.44-0.03 171.69 0.6 169.44 0.6ZM163.34-16.35L163.34-15.7 174.74-15.7 174.74-16.25Q174.74-19.85 173.36-21.83 171.99-23.8 169.14-23.8L169.14-23.8Q166.34-23.8 164.84-21.88 163.34-19.95 163.34-16.35L163.34-16.35ZM184.73 0L184.73-2.7 188.13-2.7 188.13-22 184.73-22.65 184.73-24.85 193.58-26.6 193.58-21.95 193.83-21.95Q194.18-22.85 194.71-23.68 195.23-24.5 196.01-25.15 196.78-25.8 197.81-26.2 198.83-26.6 200.13-26.6L200.13-26.6Q202.43-26.6 203.81-25.45 205.18-24.3 205.18-22.15L205.18-22.15Q205.18-20.45 204.31-19.48 203.43-18.5 201.93-18.5L201.93-18.5Q200.38-18.5 199.51-19.33 198.63-20.15 198.63-21.4L198.63-21.4Q198.63-22.25 198.98-22.83 199.33-23.4 199.83-23.5L199.83-23.5 199.83-23.65Q199.68-23.7 199.48-23.73 199.28-23.75 198.88-23.75L198.88-23.75Q197.93-23.75 197.01-23.25 196.08-22.75 195.36-21.98 194.63-21.2 194.18-20.23 193.73-19.25 193.73-18.3L193.73-18.3 193.73-2.7 198.13-2.7 198.13 0 184.73 0ZM218.58 0.6L218.58 0.6Q216.03 0.6 214.43-0.4 212.83-1.4 212.33-2.6L212.33-2.6 212.13-2.6 212.13 0 208.33 0 208.33-7.75 212.13-7.75 212.13-6.85Q212.13-4.75 213.43-3.55 214.73-2.35 217.63-2.35L217.63-2.35Q223.03-2.35 223.03-6.15L223.03-6.15Q223.03-9.1 219.13-10.05L219.13-10.05 216.43-10.7Q212.43-11.65 210.48-13.6 208.53-15.55 208.53-18.95L208.53-18.95Q208.53-22.6 210.98-24.6 213.43-26.6 217.48-26.6L217.48-26.6Q219.98-26.6 221.48-25.75 222.98-24.9 223.43-23.7L223.43-23.7 223.63-23.7 223.63-26 227.43-26 227.43-18.25 223.63-18.25 223.63-19.7Q223.63-23.65 218.28-23.65L218.28-23.65Q215.98-23.65 214.76-22.78 213.53-21.9 213.53-20.15L213.53-20.15Q213.53-17.05 217.53-16.05L217.53-16.05 220.08-15.45Q224.13-14.55 226.13-12.73 228.13-10.9 228.13-7.35L228.13-7.35Q228.13-3.75 225.56-1.58 222.98 0.6 218.58 0.6ZM244.88-2.35L244.88-2.35Q248.03-2.35 249.5-4.3 250.98-6.25 250.98-9.5L250.98-9.5 250.98-16.5Q250.98-19.75 249.5-21.7 248.03-23.65 244.88-23.65L244.88-23.65Q241.73-23.65 240.25-21.7 238.78-19.75 238.78-16.5L238.78-16.5 238.78-9.5Q238.78-6.25 240.25-4.3 241.73-2.35 244.88-2.35ZM244.88 0.6L244.88 0.6Q242.13 0.6 239.88-0.35 237.63-1.3 236.03-3.05 234.43-4.8 233.55-7.33 232.68-9.85 232.68-13L232.68-13Q232.68-16.15 233.55-18.68 234.43-21.2 236.03-22.95 237.63-24.7 239.88-25.65 242.13-26.6 244.88-26.6L244.88-26.6Q247.63-26.6 249.88-25.65 252.13-24.7 253.73-22.95 255.33-21.2 256.2-18.68 257.08-16.15 257.08-13L257.08-13Q257.08-9.85 256.2-7.33 255.33-4.8 253.73-3.05 252.13-1.3 249.88-0.35 247.63 0.6 244.88 0.6ZM261.38 0L261.38-2.7 264.78-2.7 264.78-22 261.38-22.65 261.38-24.85 270.23-26.6 270.23-21.95 270.48-21.95Q270.78-22.8 271.4-23.65 272.03-24.5 272.95-25.15 273.88-25.8 275.1-26.2 276.32-26.6 277.88-26.6L277.88-26.6Q282.63-26.6 284.63-24.18 286.63-21.75 286.63-16.9L286.63-16.9 286.63-2.7 290.03-2.7 290.03 0 277.73 0 277.73-2.7 281.03-2.7 281.03-16.6Q281.03-19.85 279.78-21.35 278.53-22.85 275.82-22.85L275.82-22.85Q274.82-22.85 273.85-22.58 272.88-22.3 272.1-21.73 271.32-21.15 270.85-20.3 270.38-19.45 270.38-18.25L270.38-18.25 270.38-2.7 273.68-2.7 273.68 0 261.38 0ZM301.42 0.6L301.42 0.6Q297.52 0.6 295.55-1.33 293.57-3.25 293.57-6.6L293.57-6.6Q293.57-10.4 296.27-12.35 298.97-14.3 305.07-14.3L305.07-14.3 308.67-14.3 308.67-17.7Q308.67-20.75 307.32-22.35 305.97-23.95 303.07-23.95L303.07-23.95Q300.62-23.95 299.37-23.25L299.37-23.25 299.37-23.05Q299.92-22.8 300.4-22.18 300.87-21.55 300.87-20.45L300.87-20.45Q300.87-19.05 300.05-18.2 299.22-17.35 297.67-17.35L297.67-17.35Q296.37-17.35 295.5-18.23 294.62-19.1 294.62-20.6L294.62-20.6Q294.62-21.75 295.3-22.83 295.97-23.9 297.27-24.75 298.57-25.6 300.45-26.1 302.32-26.6 304.77-26.6L304.77-26.6Q309.47-26.6 311.87-24.4 314.27-22.2 314.27-18.25L314.27-18.25 314.27-2.65 317.67-2.65 317.67-0.4Q316.97 0 315.87 0.3 314.77 0.6 313.52 0.6L313.52 0.6Q311.22 0.6 310.15-0.58 309.07-1.75 309.07-3.6L309.07-3.6 309.07-3.85 308.82-3.85Q308.47-3 307.92-2.23 307.37-1.45 306.5-0.8 305.62-0.15 304.37 0.23 303.12 0.6 301.42 0.6ZM303.62-2.9L303.62-2.9Q305.82-2.9 307.25-3.95 308.67-5 308.67-7.4L308.67-7.4 308.67-11.85 305.67-11.85Q302.12-11.85 300.72-10.7 299.32-9.55 299.32-7.4L299.32-7.4 299.32-6.45Q299.32-4.65 300.47-3.78 301.62-2.9 303.62-2.9ZM320.77 0L320.77-2.7 324.17-2.7 324.17-33.4 320.77-34.05 320.77-36.25 329.77-38 329.77-2.7 333.17-2.7 333.17 0 320.77 0ZM343.12-30.85L343.12-30.85Q341.52-30.85 340.62-31.78 339.72-32.7 339.72-34.15L339.72-34.15 339.72-34.45Q339.72-35.9 340.62-36.83 341.52-37.75 343.12-37.75L343.12-37.75Q344.72-37.75 345.62-36.83 346.52-35.9 346.52-34.45L346.52-34.45 346.52-34.15Q346.52-32.7 345.62-31.78 344.72-30.85 343.12-30.85ZM336.92 0L336.92-2.7 340.32-2.7 340.32-22 336.92-22.65 336.92-24.85 345.92-26.6 345.92-2.7 349.32-2.7 349.32 0 336.92 0ZM352.96 0L352.96-2.4 367.11-23.1 357.16-23.1 357.16-18.25 353.36-18.25 353.36-26 373.91-26 373.91-23.6 359.76-2.9 370.51-2.9 370.51-7.8 374.31-7.8 374.31 0 352.96 0ZM390.11 0.6L390.11 0.6Q387.21 0.6 384.96-0.38 382.71-1.35 381.16-3.15 379.61-4.95 378.79-7.45 377.96-9.95 377.96-13L377.96-13Q377.96-16.1 378.84-18.6 379.71-21.1 381.29-22.88 382.86-24.65 385.04-25.63 387.21-26.6 389.81-26.6L389.81-26.6Q392.46-26.6 394.56-25.73 396.66-24.85 398.14-23.25 399.61-21.65 400.41-19.4 401.21-17.15 401.21-14.4L401.21-14.4 401.21-13.05 384.01-13.05 384.01-11.45Q384.01-7.55 385.96-5.43 387.91-3.3 391.21-3.3L391.21-3.3Q394.11-3.3 395.89-4.58 397.66-5.85 398.51-7.75L398.51-7.75 400.66-6.45Q400.21-5.15 399.34-3.9 398.46-2.65 397.16-1.65 395.86-0.65 394.11-0.03 392.36 0.6 390.11 0.6ZM384.01-16.35L384.01-15.7 395.41-15.7 395.41-16.25Q395.41-19.85 394.04-21.83 392.66-23.8 389.81-23.8L389.81-23.8Q387.01-23.8 385.51-21.88 384.01-19.95 384.01-16.35L384.01-16.35ZM416.46 0.6L416.46 0.6Q414.06 0.6 412.11-0.33 410.16-1.25 408.81-3 407.46-4.75 406.71-7.28 405.96-9.8 405.96-13L405.96-13Q405.96-16.2 406.71-18.73 407.46-21.25 408.81-23 410.16-24.75 412.11-25.68 414.06-26.6 416.46-26.6L416.46-26.6Q419.41-26.6 421.18-25.25 422.96-23.9 423.76-22.1L423.76-22.1 424.01-22.1 424.01-33.4 420.61-34.05 420.61-36.25 429.61-38 429.61-4 433.01-3.35 433.01-1.15 424.01 0.6 424.01-3.9 423.76-3.9Q422.96-2.1 421.16-0.75 419.36 0.6 416.46 0.6ZM418.21-3L418.21-3Q419.31-3 420.36-3.33 421.41-3.65 422.23-4.3 423.06-4.95 423.53-5.85 424.01-6.75 424.01-7.9L424.01-7.9 424.01-18.1Q424.01-19.25 423.53-20.15 423.06-21.05 422.23-21.7 421.41-22.35 420.36-22.68 419.31-23 418.21-23L418.21-23Q415.36-23 413.66-21.05 411.96-19.1 411.96-15.65L411.96-15.65 411.96-10.35Q411.96-6.9 413.66-4.95 415.36-3 418.21-3ZM464.55-2.5L464.55-2.5Q468.85-2.5 471.35-5.38 473.85-8.25 473.85-13.4L473.85-13.4 473.85-21.5Q473.85-26.65 471.35-29.53 468.85-32.4 464.55-32.4L464.55-32.4Q460.25-32.4 457.75-29.53 455.25-26.65 455.25-21.5L455.25-21.5 455.25-13.4Q455.25-8.25 457.75-5.38 460.25-2.5 464.55-2.5ZM464.55 0.6L464.55 0.6Q461.05 0.6 458.15-0.63 455.25-1.85 453.15-4.17 451.05-6.5 449.88-9.85 448.7-13.2 448.7-17.45L448.7-17.45Q448.7-21.7 449.88-25.05 451.05-28.4 453.15-30.73 455.25-33.05 458.15-34.27 461.05-35.5 464.55-35.5L464.55-35.5Q468.05-35.5 470.95-34.27 473.85-33.05 475.95-30.73 478.05-28.4 479.23-25.05 480.4-21.7 480.4-17.45L480.4-17.45Q480.4-13.2 479.23-9.85 478.05-6.5 475.95-4.17 473.85-1.85 470.95-0.63 468.05 0.6 464.55 0.6ZM485.15 0L485.15-2.7 488.55-2.7 488.55-22 485.15-22.65 485.15-24.85 494-26.6 494-21.95 494.25-21.95Q494.55-22.8 495.18-23.65 495.8-24.5 496.73-25.15 497.65-25.8 498.88-26.2 500.1-26.6 501.65-26.6L501.65-26.6Q506.4-26.6 508.4-24.18 510.4-21.75 510.4-16.9L510.4-16.9 510.4-2.7 513.8-2.7 513.8 0 501.5 0 501.5-2.7 504.8-2.7 504.8-16.6Q504.8-19.85 503.55-21.35 502.3-22.85 499.6-22.85L499.6-22.85Q498.6-22.85 497.63-22.58 496.65-22.3 495.88-21.73 495.1-21.15 494.63-20.3 494.15-19.45 494.15-18.25L494.15-18.25 494.15-2.7 497.45-2.7 497.45 0 485.15 0ZM516.9 0L516.9-2.7 520.3-2.7 520.3-33.4 516.9-34.05 516.9-36.25 525.9-38 525.9-2.7 529.3-2.7 529.3 0 516.9 0ZM539.25-30.85L539.25-30.85Q537.65-30.85 536.75-31.78 535.85-32.7 535.85-34.15L535.85-34.15 535.85-34.45Q535.85-35.9 536.75-36.83 537.65-37.75 539.25-37.75L539.25-37.75Q540.85-37.75 541.75-36.83 542.65-35.9 542.65-34.45L542.65-34.45 542.65-34.15Q542.65-32.7 541.75-31.78 540.85-30.85 539.25-30.85ZM533.05 0L533.05-2.7 536.45-2.7 536.45-22 533.05-22.65 533.05-24.85 542.05-26.6 542.05-2.7 545.45-2.7 545.45 0 533.05 0ZM549.19 0L549.19-2.7 552.59-2.7 552.59-22 549.19-22.65 549.19-24.85 558.04-26.6 558.04-21.95 558.29-21.95Q558.59-22.8 559.22-23.65 559.84-24.5 560.77-25.15 561.69-25.8 562.92-26.2 564.14-26.6 565.69-26.6L565.69-26.6Q570.44-26.6 572.44-24.18 574.44-21.75 574.44-16.9L574.44-16.9 574.44-2.7 577.84-2.7 577.84 0 565.54 0 565.54-2.7 568.84-2.7 568.84-16.6Q568.84-19.85 567.59-21.35 566.34-22.85 563.64-22.85L563.64-22.85Q562.64-22.85 561.67-22.58 560.69-22.3 559.92-21.73 559.14-21.15 558.67-20.3 558.19-19.45 558.19-18.25L558.19-18.25 558.19-2.7 561.49-2.7 561.49 0 549.19 0ZM593.64 0.6L593.64 0.6Q590.74 0.6 588.49-0.38 586.24-1.35 584.69-3.15 583.14-4.95 582.32-7.45 581.49-9.95 581.49-13L581.49-13Q581.49-16.1 582.37-18.6 583.24-21.1 584.82-22.88 586.39-24.65 588.57-25.63 590.74-26.6 593.34-26.6L593.34-26.6Q595.99-26.6 598.09-25.73 600.19-24.85 601.67-23.25 603.14-21.65 603.94-19.4 604.74-17.15 604.74-14.4L604.74-14.4 604.74-13.05 587.54-13.05 587.54-11.45Q587.54-7.55 589.49-5.43 591.44-3.3 594.74-3.3L594.74-3.3Q597.64-3.3 599.42-4.58 601.19-5.85 602.04-7.75L602.04-7.75 604.19-6.45Q603.74-5.15 602.87-3.9 601.99-2.65 600.69-1.65 599.39-0.65 597.64-0.03 595.89 0.6 593.64 0.6ZM587.54-16.35L587.54-15.7 598.94-15.7 598.94-16.25Q598.94-19.85 597.57-21.83 596.19-23.8 593.34-23.8L593.34-23.8Q590.54-23.8 589.04-21.88 587.54-19.95 587.54-16.35L587.54-16.35ZM633.59 0.6L633.59 0.6Q630.49 0.6 628.56-0.45 626.64-1.5 625.94-2.95L625.94-2.95 625.69-2.95 625.69 0 621.14 0 621.14-10.25 625.69-10.25 625.69-8Q625.69-5.4 627.41-3.95 629.14-2.5 632.94-2.5L632.94-2.5Q636.94-2.5 638.74-4.15 640.54-5.8 640.54-8.55L640.54-8.55Q640.54-11 639.19-12.33 637.84-13.65 634.64-14.45L634.64-14.45 632.09-15.05Q629.64-15.6 627.69-16.5 625.74-17.4 624.39-18.7 623.04-20 622.31-21.75 621.59-23.5 621.59-25.85L621.59-25.85Q621.59-28 622.39-29.78 623.19-31.55 624.66-32.83 626.14-34.1 628.24-34.8 630.34-35.5 632.99-35.5L632.99-35.5Q635.99-35.5 637.79-34.5 639.59-33.5 640.29-32.15L640.29-32.15 640.54-32.15 640.54-34.9 645.09-34.9 645.09-24.95 640.54-24.95 640.54-27.2Q640.54-29.75 638.81-31.08 637.09-32.4 633.39-32.4L633.39-32.4Q629.94-32.4 628.26-30.88 626.59-29.35 626.59-27L626.59-27Q626.59-24.5 628.11-23.15 629.64-21.8 633.14-20.95L633.14-20.95 635.49-20.45Q640.34-19.3 642.99-16.82 645.64-14.35 645.64-10.05L645.64-10.05Q645.64-7.75 644.81-5.8 643.99-3.85 642.46-2.43 640.94-1 638.69-0.2 636.44 0.6 633.59 0.6ZM650.13 0L650.13-2.7 653.53-2.7 653.53-33.4 650.13-34.05 650.13-36.25 659.13-38 659.13-21.95 659.38-21.95Q659.68-22.8 660.31-23.65 660.93-24.5 661.83-25.15 662.73-25.8 663.93-26.2 665.13-26.6 666.63-26.6L666.63-26.6Q671.38-26.6 673.38-24.18 675.38-21.75 675.38-16.9L675.38-16.9 675.38-2.7 678.78-2.7 678.78 0 666.48 0 666.48-2.7 669.78-2.7 669.78-16.6Q669.78-19.85 668.53-21.35 667.28-22.85 664.58-22.85L664.58-22.85Q663.58-22.85 662.61-22.58 661.63-22.3 660.86-21.73 660.08-21.15 659.61-20.3 659.13-19.45 659.13-18.25L659.13-18.25 659.13-2.7 662.43-2.7 662.43 0 650.13 0ZM694.63-2.35L694.63-2.35Q697.78-2.35 699.26-4.3 700.73-6.25 700.73-9.5L700.73-9.5 700.73-16.5Q700.73-19.75 699.26-21.7 697.78-23.65 694.63-23.65L694.63-23.65Q691.48-23.65 690.01-21.7 688.53-19.75 688.53-16.5L688.53-16.5 688.53-9.5Q688.53-6.25 690.01-4.3 691.48-2.35 694.63-2.35ZM694.63 0.6L694.63 0.6Q691.88 0.6 689.63-0.35 687.38-1.3 685.78-3.05 684.18-4.8 683.31-7.33 682.43-9.85 682.43-13L682.43-13Q682.43-16.15 683.31-18.68 684.18-21.2 685.78-22.95 687.38-24.7 689.63-25.65 691.88-26.6 694.63-26.6L694.63-26.6Q697.38-26.6 699.63-25.65 701.88-24.7 703.48-22.95 705.08-21.2 705.96-18.68 706.83-16.15 706.83-13L706.83-13Q706.83-9.85 705.96-7.33 705.08-4.8 703.48-3.05 701.88-1.3 699.63-0.35 697.38 0.6 694.63 0.6ZM710.63 10L710.63 7.3 714.03 7.3 714.03-22 710.63-22.65 710.63-24.85 719.63-26.6 719.63-22.1 719.88-22.1Q720.68-23.9 722.48-25.25 724.28-26.6 727.18-26.6L727.18-26.6Q729.58-26.6 731.53-25.68 733.48-24.75 734.83-23 736.18-21.25 736.93-18.73 737.68-16.2 737.68-13L737.68-13Q737.68-9.8 736.93-7.28 736.18-4.75 734.83-3 733.48-1.25 731.53-0.33 729.58 0.6 727.18 0.6L727.18 0.6Q724.23 0.6 722.45-0.75 720.68-2.1 719.88-3.9L719.88-3.9 719.63-3.9 719.63 7.3 724.03 7.3 724.03 10 710.63 10ZM725.43-3L725.43-3Q728.28-3 729.98-4.95 731.68-6.9 731.68-10.35L731.68-10.35 731.68-15.65Q731.68-19.1 729.98-21.05 728.28-23 725.43-23L725.43-23Q724.28-23 723.25-22.68 722.23-22.35 721.4-21.7 720.58-21.05 720.1-20.15 719.63-19.25 719.63-18.1L719.63-18.1 719.63-7.9Q719.63-6.75 720.1-5.85 720.58-4.95 721.4-4.3 722.23-3.65 723.25-3.33 724.28-3 725.43-3ZM741.73 10L741.73 7.3 745.13 7.3 745.13-22 741.73-22.65 741.73-24.85 750.73-26.6 750.73-22.1 750.98-22.1Q751.78-23.9 753.58-25.25 755.38-26.6 758.28-26.6L758.28-26.6Q760.68-26.6 762.63-25.68 764.58-24.75 765.93-23 767.28-21.25 768.03-18.73 768.78-16.2 768.78-13L768.78-13Q768.78-9.8 768.03-7.28 767.28-4.75 765.93-3 764.58-1.25 762.63-0.33 760.68 0.6 758.28 0.6L758.28 0.6Q755.33 0.6 753.55-0.75 751.78-2.1 750.98-3.9L750.98-3.9 750.73-3.9 750.73 7.3 755.13 7.3 755.13 10 741.73 10ZM756.53-3L756.53-3Q759.38-3 761.08-4.95 762.78-6.9 762.78-10.35L762.78-10.35 762.78-15.65Q762.78-19.1 761.08-21.05 759.38-23 756.53-23L756.53-23Q755.38-23 754.35-22.68 753.33-22.35 752.5-21.7 751.68-21.05 751.2-20.15 750.73-19.25 750.73-18.1L750.73-18.1 750.73-7.9Q750.73-6.75 751.2-5.85 751.68-4.95 752.5-4.3 753.33-3.65 754.35-3.33 755.38-3 756.53-3ZM779.52-30.85L779.52-30.85Q777.92-30.85 777.02-31.78 776.12-32.7 776.12-34.15L776.12-34.15 776.12-34.45Q776.12-35.9 777.02-36.83 777.92-37.75 779.52-37.75L779.52-37.75Q781.12-37.75 782.02-36.83 782.92-35.9 782.92-34.45L782.92-34.45 782.92-34.15Q782.92-32.7 782.02-31.78 781.12-30.85 779.52-30.85ZM773.32 0L773.32-2.7 776.72-2.7 776.72-22 773.32-22.65 773.32-24.85 782.32-26.6 782.32-2.7 785.72-2.7 785.72 0 773.32 0ZM789.47 0L789.47-2.7 792.87-2.7 792.87-22 789.47-22.65 789.47-24.85 798.32-26.6 798.32-21.95 798.57-21.95Q798.87-22.8 799.5-23.65 800.12-24.5 801.05-25.15 801.97-25.8 803.2-26.2 804.42-26.6 805.97-26.6L805.97-26.6Q810.72-26.6 812.72-24.18 814.72-21.75 814.72-16.9L814.72-16.9 814.72-2.7 818.12-2.7 818.12 0 805.82 0 805.82-2.7 809.12-2.7 809.12-16.6Q809.12-19.85 807.87-21.35 806.62-22.85 803.92-22.85L803.92-22.85Q802.92-22.85 801.95-22.58 800.97-22.3 800.2-21.73 799.42-21.15 798.95-20.3 798.47-19.45 798.47-18.25L798.47-18.25 798.47-2.7 801.77-2.7 801.77 0 789.47 0ZM833.12 10.6L833.12 10.6Q829.82 10.6 827.57 10.18 825.32 9.75 823.97 8.97 822.62 8.2 822.02 7.08 821.42 5.95 821.42 4.6L821.42 4.6Q821.42 3.6 821.87 2.78 822.32 1.95 823.07 1.33 823.82 0.7 824.82 0.25 825.82-0.2 826.87-0.45L826.87-0.45 826.87-0.65Q825.22-1.1 824.32-2.25 823.42-3.4 823.42-5.15L823.42-5.15Q823.42-7.3 824.79-8.5 826.17-9.7 828.07-10.2L828.07-10.2 828.07-10.4Q825.67-11.4 824.27-13.33 822.87-15.25 822.87-18.05L822.87-18.05Q822.87-20.05 823.64-21.65 824.42-23.25 825.79-24.35 827.17-25.45 829.07-26.03 830.97-26.6 833.27-26.6L833.27-26.6Q835.52-26.6 837.07-26.15 838.62-25.7 839.92-24.85L839.92-24.85Q840.02-27.7 841.17-28.88 842.32-30.05 844.12-30.05L844.12-30.05Q845.37-30.05 846.19-29.33 847.02-28.6 847.02-27.3L847.02-27.3Q847.02-26.1 846.24-25.33 845.47-24.55 844.12-24.55L844.12-24.55Q842.62-24.55 841.67-25.65L841.67-25.65 841.47-25.65 841.47-23.6Q842.37-22.7 843.07-21.38 843.77-20.05 843.77-18.05L843.77-18.05Q843.77-16.05 842.99-14.45 842.22-12.85 840.82-11.75 839.42-10.65 837.49-10.05 835.57-9.45 833.27-9.45L833.27-9.45Q832.42-9.45 831.64-9.55 830.87-9.65 830.12-9.8L830.12-9.8Q829.07-9.45 828.32-8.75 827.57-8.05 827.57-7.05L827.57-7.05Q827.57-5.9 828.44-5.4 829.32-4.9 831.37-4.9L831.37-4.9 837.22-4.9Q842.07-4.9 844.27-3 846.47-1.1 846.47 2.2L846.47 2.2Q846.47 6.1 843.14 8.35 839.82 10.6 833.12 10.6ZM833.32-12.15L833.32-12.15Q835.72-12.15 836.92-13.45 838.12-14.75 838.12-17.2L838.12-17.2 838.12-18.85Q838.12-21.3 836.92-22.6 835.72-23.9 833.32-23.9L833.32-23.9Q830.92-23.9 829.72-22.6 828.52-21.3 828.52-18.85L828.52-18.85 828.52-17.2Q828.52-14.75 829.72-13.45 830.92-12.15 833.32-12.15ZM826.12 4.15L826.12 4.15Q826.12 6 827.67 6.9 829.22 7.8 832.07 7.8L832.07 7.8 834.77 7.8Q838.17 7.8 839.99 6.73 841.82 5.65 841.82 3.7L841.82 3.7Q841.82 1.9 840.59 1.1 839.37 0.3 836.62 0.3L836.62 0.3 828.52 0.3Q826.12 1.55 826.12 4.15ZM861.71 0L861.71-2.7 865.36-2.7 865.36-32.2 861.71-32.2 861.71-34.9 874.96-34.9 874.96-32.2 871.31-32.2 871.31-19.35 887.16-19.35 887.16-32.2 883.51-32.2 883.51-34.9 896.76-34.9 896.76-32.2 893.11-32.2 893.11-2.7 896.76-2.7 896.76 0 883.51 0 883.51-2.7 887.16-2.7 887.16-16.4 871.31-16.4 871.31-2.7 874.96-2.7 874.96 0 861.71 0ZM909.06 0.6L909.06 0.6Q905.16 0.6 903.19-1.33 901.21-3.25 901.21-6.6L901.21-6.6Q901.21-10.4 903.91-12.35 906.61-14.3 912.71-14.3L912.71-14.3 916.31-14.3 916.31-17.7Q916.31-20.75 914.96-22.35 913.61-23.95 910.71-23.95L910.71-23.95Q908.26-23.95 907.01-23.25L907.01-23.25 907.01-23.05Q907.56-22.8 908.04-22.18 908.51-21.55 908.51-20.45L908.51-20.45Q908.51-19.05 907.69-18.2 906.86-17.35 905.31-17.35L905.31-17.35Q904.01-17.35 903.14-18.23 902.26-19.1 902.26-20.6L902.26-20.6Q902.26-21.75 902.94-22.83 903.61-23.9 904.91-24.75 906.21-25.6 908.09-26.1 909.96-26.6 912.41-26.6L912.41-26.6Q917.11-26.6 919.51-24.4 921.91-22.2 921.91-18.25L921.91-18.25 921.91-2.65 925.31-2.65 925.31-0.4Q924.61 0 923.51 0.3 922.41 0.6 921.16 0.6L921.16 0.6Q918.86 0.6 917.79-0.58 916.71-1.75 916.71-3.6L916.71-3.6 916.71-3.85 916.46-3.85Q916.11-3 915.56-2.23 915.01-1.45 914.14-0.8 913.26-0.15 912.01 0.23 910.76 0.6 909.06 0.6ZM911.26-2.9L911.26-2.9Q913.46-2.9 914.89-3.95 916.31-5 916.31-7.4L916.31-7.4 916.31-11.85 913.31-11.85Q909.76-11.85 908.36-10.7 906.96-9.55 906.96-7.4L906.96-7.4 906.96-6.45Q906.96-4.65 908.11-3.78 909.26-2.9 911.26-2.9ZM937.66 0L928.86-23.3 926.36-23.3 926.36-26 938.21-26 938.21-23.3 934.91-23.3 941.06-5.45 941.31-5.45 947.46-23.3 944.16-23.3 944.16-26 953.31-26 953.31-23.3 950.81-23.3 942.01 0 937.66 0ZM967.21 0.6L967.21 0.6Q964.31 0.6 962.06-0.38 959.81-1.35 958.26-3.15 956.71-4.95 955.88-7.45 955.06-9.95 955.06-13L955.06-13Q955.06-16.1 955.93-18.6 956.81-21.1 958.38-22.88 959.96-24.65 962.13-25.63 964.31-26.6 966.91-26.6L966.91-26.6Q969.56-26.6 971.66-25.73 973.76-24.85 975.23-23.25 976.71-21.65 977.51-19.4 978.31-17.15 978.31-14.4L978.31-14.4 978.31-13.05 961.11-13.05 961.11-11.45Q961.11-7.55 963.06-5.43 965.01-3.3 968.31-3.3L968.31-3.3Q971.21-3.3 972.98-4.58 974.76-5.85 975.61-7.75L975.61-7.75 977.76-6.45Q977.31-5.15 976.43-3.9 975.56-2.65 974.26-1.65 972.96-0.65 971.21-0.03 969.46 0.6 967.21 0.6ZM961.11-16.35L961.11-15.7 972.51-15.7 972.51-16.25Q972.51-19.85 971.13-21.83 969.76-23.8 966.91-23.8L966.91-23.8Q964.11-23.8 962.61-21.88 961.11-19.95 961.11-16.35L961.11-16.35ZM982.5 0L982.5-2.7 985.9-2.7 985.9-22 982.5-22.65 982.5-24.85 991.35-26.6 991.35-21.95 991.6-21.95Q991.9-22.8 992.53-23.65 993.15-24.5 994.08-25.15 995-25.8 996.23-26.2 997.45-26.6 999-26.6L999-26.6Q1003.75-26.6 1005.75-24.18 1007.75-21.75 1007.75-16.9L1007.75-16.9 1007.75-2.7 1011.15-2.7 1011.15 0 998.85 0 998.85-2.7 1002.15-2.7 1002.15-16.6Q1002.15-19.85 1000.9-21.35 999.65-22.85 996.95-22.85L996.95-22.85Q995.95-22.85 994.98-22.58 994-22.3 993.23-21.73 992.45-21.15 991.98-20.3 991.5-19.45 991.5-18.25L991.5-18.25 991.5-2.7 994.8-2.7 994.8 0 982.5 0Z" opacity="1" transform="matrix(1,0,0,1,0,0)" fill="#ffffff" class="slogan-text-1" data-fill-palette-color="quaternary" id="text-1"></path></svg></g></svg></g></svg></g></svg></g><g transform="matrix(1,0,0,1,47.08541788746974,0)"><svg viewBox="0 0 110.62916422506053 96.86749392015669" height="96.86749392015669" width="110.62916422506053"><g><svg xmlns="http://www.w3.org/2000/svg" xmlns:xlink="http://www.w3.org/1999/xlink" version="1.1" x="0" y="0" viewBox="7.279999732971191 10.020000457763672 85.43802642822266 74.80999755859375" enable-background="new 0 0 100 100" xml:space="preserve" height="96.86749392015669" width="110.62916422506053" class="icon-icon-0" data-fill-palette-color="quaternary" id="icon-0"><path d="M57.33 82.53v0.64h14v-0.64H57.33zM92.42 32.16L78.79 10.71c-0.13-0.41-0.521-0.69-0.96-0.69H22.17c-0.44 0-0.8 0.28-0.93 0.71L7.72 32.1c-0.2 0.13-0.44 1.88-0.44 1.88 0 8.37 8.78 3.9 12.25 3.9 0.6 0 0.73 0.95 0.73 4.39l0.01-7.31 0.06 25.89c0.28 10 1.19 3 4.17 2.99-0.62-1.33 0.01-15.78-0.07-17.31H24.4v-9.27c0.83 1.45 2.68 2.64 4.7 2.64h0.01c0.65 0 10.968 0 11.64 0 1.75 0 3.26-2.07 4.01-3.25 0.75 1.18 1.89 2.29 3.27 2.85 0.62 0.26 1.28 0.4 1.98 0.4 0.7 0 1.36-0.14 1.98-0.4 1.39-0.56 2.539-1.66 3.27-2.85 0.75 1.18 1.615 3.25 3.865 3.25 0.672 0 10.945-0.05 11.375-0.02 0.01 0 0.01 0 0.01 0 0.131 0.02 0.25 0.02 0.381 0.02 2.021 0 3.909-1.19 4.729-2.64v9.271h-0.149c-0.08 1.489 1.561 2.92 0.979 4.22 2.64-0.01 2.46 9.99 3.05 9.99h0.109l0.131-18.47c0-2.94 1.148-4.37 1.74-4.37 3.459 0 11.238 4.45 11.238-3.92C92.721 33.98 92.55 32.27 92.42 32.16zM12.8 32.88l11.24-19.21h4.73l-7.83 19.21H12.8zM40.94 32.88H25.8l7.24-19.21h9.73L40.94 32.88zM45.8 32.88l1.24-19.21h5.729l1.17 19.21H45.8zM58.8 32.88l-1.76-19.21h9.729l7.17 19.21H58.8zM78.8 32.88l-7.76-19.21h4.729l11.17 19.21H78.8zM57.33 83.17h14v-0.64h-14V83.17z" fill="#ffffff" data-fill-palette-color="quaternary"></path><path d="M30.93 39.56" fill="#ffffff" data-fill-palette-color="quaternary"></path><path d="M50.01 39.9c-0.7 0-1.36-0.14-1.98-0.4h3.96C51.37 39.76 50.71 39.9 50.01 39.9z" fill="#ffffff" data-fill-palette-color="quaternary"></path><path d="M79.5 46.5v26.33c0 6.63-5.37 12-12 12H32.17c-6.63 0-12-4.331-12-12V36.5c0 9.48 0.03 8.96 0.1 8.46 0.39-3.04 0.91 19.28 3.13 17.39l1-15.819 0.03 10c0.08 1.528 0.45 12.979 1.07 14.31 1.89 4.13 6.06 6.99 10.9 6.99h27.1c4.87 0 9.07-2.9 10.95-7.08 0.579-1.3 0.938-2.73 1.021-4.22l0.149-20v-3.87C78.01 44.86 79.5 43 79.5 46.5z" fill="#ffffff" data-fill-palette-color="quaternary"></path><path d="M57.125 77.232c0 3.279-2.658 5.938-5.938 5.938l0 0c-3.279 0-5.938-2.658-5.938-5.938v-10.13c0-3.279 2.658-5.938 5.938-5.938l0 0c3.279 0 5.938 2.658 5.938 5.938V77.232z" fill="#ffffff" data-fill-palette-color="quaternary"></path><path d="M71.75 46.625c0 1.174-0.951 2.125-2.125 2.125h-39.25c-1.174 0-2.125-0.951-2.125-2.125l0 0c0-1.174 0.951-2.125 2.125-2.125h39.25C70.799 44.5 71.75 45.451 71.75 46.625L71.75 46.625z" fill="#ffffff" data-fill-palette-color="quaternary"></path><path d="M71.75 53.625c0 1.174-0.951 2.125-2.125 2.125h-39.25c-1.174 0-2.125-0.951-2.125-2.125l0 0c0-1.174 0.951-2.125 2.125-2.125h39.25C70.799 51.5 71.75 52.451 71.75 53.625L71.75 53.625z" fill="#ffffff" data-fill-palette-color="quaternary"></path></svg></g></svg></g><g></g></svg></g></svg></g></svg></g><defs></defs></svg><rect width="512" height="320" fill="none" stroke="none" visibility="hidden"></rect></g></svg></g></svg>