<svg id="Layer_1" data-name="Layer 1" xmlns="http://www.w3.org/2000/svg" viewBox="0 0 122.88 102.36"><defs><style>.cls-1{fill-rule:evenodd;}</style></defs><title>store</title><path class="cls-1" d="M69.19,77.45a1.75,1.75,0,1,1-1.75,1.75,1.75,1.75,0,0,1,1.75-1.75ZM22.11,22.84H3.44v3a8.48,8.48,0,0,0,8.43,8.46c2.32,0,6.24-.95,7.77-2.49a8.45,8.45,0,0,0,2.47-6v-3Zm-17.81-3H22.64l3-16.93h-14L4.3,19.82ZM74.43,2.89,75.7,19.82H96.21L92.75,2.89ZM71.69,19.82,70.43,2.89h-18L51.18,19.82Zm-24.52,0L48.41,2.89H29.66l-3,16.93ZM96.74,2.89l3.45,16.93h18.29L110.57,2.89Zm4,20v3a8.45,8.45,0,0,0,2.47,6c1.53,1.54,5.45,2.49,7.77,2.49a8.48,8.48,0,0,0,8.43-8.46v-3ZM76,22.84v3a8.42,8.42,0,0,0,2.48,6c1.53,1.54,5.44,2.49,7.76,2.49s6.23-.95,7.76-2.49a8.42,8.42,0,0,0,2.48-6v-3Zm-24.82,0v3a8.42,8.42,0,0,0,2.48,6c1.53,1.54,5.44,2.49,7.76,2.49s6.23-.95,7.76-2.49a8.42,8.42,0,0,0,2.48-6v-3Zm-24.82,0v3a8.42,8.42,0,0,0,2.48,6c1.53,1.54,5.44,2.49,7.76,2.49s6.23-.95,7.76-2.49a8.42,8.42,0,0,0,2.48-6v-3Zm79.71,13.79c-1.25-.58-4.33-1.38-5.3-2.35a12,12,0,0,1-2.12-2.88,12,12,0,0,1-2.12,2.88c-2.14,2.14-7,3.46-10.29,3.46S78.11,36.42,76,34.28a12,12,0,0,1-2.12-2.88,12,12,0,0,1-2.12,2.88c-2.14,2.14-7,3.46-10.29,3.46s-8.15-1.32-10.29-3.46A12,12,0,0,1,49,31.4a12,12,0,0,1-2.12,2.88c-2.14,2.14-7,3.46-10.29,3.46s-8.15-1.32-10.29-3.46a12,12,0,0,1-2.12-2.88,12,12,0,0,1-2.12,2.88c-1.41,1.41-5.12,2.46-7.08,3q-.64.08-1.32.12V95.86a1.12,1.12,0,0,0,.33.79,1.15,1.15,0,0,0,.81.34h45V56.62a9.76,9.76,0,0,1,9.74-9.74H85.64a9.76,9.76,0,0,1,9.73,9.74V97h12.68a1.13,1.13,0,0,0,.8-.34h0a1.13,1.13,0,0,0,.32-.79V37.48c0-.11,0-.22,0-.32a24.62,24.62,0,0,1-3.11-.53ZM64.33,97H90.85V56.62a5.24,5.24,0,0,0-5.22-5.22H69.55a5.24,5.24,0,0,0-5.22,5.22V97ZM30,54.32h16.1a2.27,2.27,0,0,1,2.27,2.26V80.51a2.27,2.27,0,0,1-2.27,2.27H30a2.27,2.27,0,0,1-2.27-2.27V56.58A2.27,2.27,0,0,1,30,54.32Zm13.84,4.53H32.25v19.4H43.84V58.85ZM8.37,37a10.49,10.49,0,0,1-4.9-2.67A11.77,11.77,0,0,1,0,25.94V21.3H0a1.45,1.45,0,0,1,.17-.67L9.45.69A1.33,1.33,0,0,1,10.62,0h100.9a1.35,1.35,0,0,1,1.21.76l10,19.83a1.35,1.35,0,0,1,.19.63h0a.57.57,0,0,1,0,.13v4.58a11.77,11.77,0,0,1-3.47,8.34,10,10,0,0,1-4.91,2.64,2.6,2.6,0,0,1,.06.56V95.86a6.49,6.49,0,0,1-1.92,4.58h0a6.49,6.49,0,0,1-4.6,1.91H14.83a6.49,6.49,0,0,1-4.59-1.91h0a6.46,6.46,0,0,1-1.91-4.58V37.48a3.07,3.07,0,0,1,0-.53Z"/></svg>